<svg width="102" height="34" viewBox="0 0 102 34" fill="none" xmlns="http://www.w3.org/2000/svg"><path fill-rule="evenodd" clip-rule="evenodd" d="M6.16849 3.30261H20.2361L26.1878 29.2736L18.0719 29.2736L17.5308 26.0273H8.8738L8.33274 29.2736H0.216797L6.16849 3.30261ZM11.3988 10.8775H15.0059L16.5389 20.0756H9.86575L11.3988 10.8775Z" fill="black"></path><path d="M39.1733 3.30261C32.0016 3.30261 26.1878 9.11641 26.1878 16.2881C26.1878 23.4598 32.0016 29.2736 39.1733 29.2736H45.6661V20.6166L39.6598 21.4357C36.5405 21.861 33.7627 19.4363 33.7627 16.2881C33.7627 13.1399 36.5405 10.7152 39.6598 11.1406L45.6661 11.9596V3.30261H39.1733Z" fill="black"></path><path fill-rule="evenodd" clip-rule="evenodd" d="M60.2748 3.30261C53.4019 3.30261 47.8303 8.87418 47.8303 15.7471V16.8292C47.8303 23.7021 53.4019 29.2736 60.2748 29.2736C67.1477 29.2736 72.7192 23.7021 72.7192 16.8292V15.7471C72.7192 8.87418 67.1477 3.30261 60.2748 3.30261ZM60.2748 10.8775C57.5854 10.8775 55.4052 13.0577 55.4052 15.7471V16.8292C55.4052 19.5186 57.5854 21.6988 60.2748 21.6988C62.9642 21.6988 65.1444 19.5186 65.1444 16.8292V15.7471C65.1444 13.0577 62.9642 10.8775 60.2748 10.8775Z" fill="black"></path><path d="M82.9994 29.2736H74.8835V3.30261H81.9173L90.3662 17.287L89.4922 3.30261H97.6081V29.2736H90.5743L82.1254 15.2892L82.9994 29.2736Z" fill="black"></path></svg>