<svg viewBox="0 0 121 27" fill="none" xmlns="http://www.w3.org/2000/svg"><path d="M75.903 8.832v12.302h-3.636v-.954c-.65 1.035-2.229 1.278-3.586 1.278-1.357 0-2.515-.448-3.312-1.345-.797-.896-1.195-2.125-1.195-3.686V8.832h3.635v6.724c0 .813.187 1.444.56 1.893.374.448.91.672 1.607.672s1.254-.245 1.669-.735c.415-.49.622-1.174.622-2.054v-6.5h3.636ZM84.743 12.011c-1.913 0-3.212 1.625-3.212 4.118v5.005H77.92V8.832h3.586v1.482c.168-.536 1.31-1.548 3.053-1.548h1.106v3.245h-.922ZM91.48 6.08a2.075 2.075 0 0 1-.449.673 2.25 2.25 0 0 1-.672.46 2.003 2.003 0 0 1-.834.175c-.3 0-.577-.058-.835-.175a2.25 2.25 0 0 1-.672-.46c-.19-.191-.34-.415-.448-.673a2.072 2.072 0 0 1-.162-.809c0-.282.054-.552.162-.81.108-.257.257-.48.448-.672.191-.19.415-.344.672-.46.258-.117.536-.175.835-.175.298 0 .577.058.834.175.257.116.481.27.672.46.191.191.34.415.449.673.108.257.161.527.161.81 0 .281-.053.551-.161.808Zm-3.773 2.752h3.636v12.302h-3.636V8.832ZM93.36 21.134V8.832h3.636v1.154c.381-.598 1.143-1.478 3.635-1.478 1.411 0 2.52.449 3.325 1.345.805.897 1.208 2.125 1.208 3.686v7.595h-3.636v-6.541c0-.813-.191-1.44-.573-1.88-.382-.44-.93-.66-1.644-.66-.713 0-1.257.245-1.68.734-.424.49-.635 1.167-.635 2.03v6.317H93.36ZM114.822 20.524a5.154 5.154 0 0 1-2.242.486 5.715 5.715 0 0 1-2.315-.474 5.597 5.597 0 0 1-1.843-1.295 5.913 5.913 0 0 1-1.208-1.954 6.765 6.765 0 0 1-.436-2.453c0-.88.145-1.731.436-2.503.29-.772.697-1.44 1.22-2.005a5.76 5.76 0 0 1 1.843-1.332 5.456 5.456 0 0 1 2.303-.486c.831 0 1.59.17 2.279.51.689.341 1.208.81 1.556 1.408V8.832h3.586v11.505c0 .963-.149 1.843-.448 2.64a5.613 5.613 0 0 1-1.32 2.054c-.581.573-1.29 1.017-2.129 1.333-.838.315-1.797.473-2.876.473-1.461 0-2.727-.29-3.798-.872-1.071-.58-1.847-1.378-2.328-2.39l2.889-1.719a3.58 3.58 0 0 0 1.344 1.42 3.666 3.666 0 0 0 1.893.498c.996 0 1.776-.299 2.341-.897.564-.597.846-1.444.846-2.54v-1.145c-.381.564-.913 1.008-1.593 1.332Zm1.066-6.91a3.002 3.002 0 0 0-.66-.997 3.06 3.06 0 0 0-3.349-.66 2.914 2.914 0 0 0-.971.66 3.177 3.177 0 0 0-.884 2.216 3.178 3.178 0 0 0 .884 2.217 3.013 3.013 0 0 0 2.154.896 3.061 3.061 0 0 0 2.166-.896c.283-.282.503-.614.66-.996a3.16 3.16 0 0 0 .237-1.22 3.16 3.16 0 0 0-.237-1.22ZM23.225 8.907v2.988h-3.187v9.314h-3.611v-9.314h-1.743V8.907h1.743V7.114c0-1.66.452-2.943 1.357-3.848.905-.904 2.138-1.357 3.698-1.357H23.5v3.163h-1.394c-.581 0-1.071.158-1.47.473-.398.315-.597.847-.597 1.594v1.768h3.187ZM34.033 20.661c-.971.581-2.129.872-3.474.872-.963 0-1.843-.158-2.64-.474a5.977 5.977 0 0 1-2.054-1.332 6.131 6.131 0 0 1-1.345-2.054c-.323-.797-.485-1.669-.485-2.615 0-.947.162-1.789.485-2.578a6.301 6.301 0 0 1 1.345-2.054 6.13 6.13 0 0 1 2.017-1.357 6.47 6.47 0 0 1 2.528-.486c.913 0 1.78.162 2.552.486a5.73 5.73 0 0 1 1.98 1.357 6.229 6.229 0 0 1 1.283 2.08c.307.804.46 1.689.46 2.652 0 .215-.004.398-.012.547a2.63 2.63 0 0 1-.038.349h-9.04c.034.365.134.697.3.996.166.299.386.56.66.784a3.16 3.16 0 0 0 2.004.71c.68 0 1.22-.133 1.619-.398.398-.266.739-.631 1.02-1.096l3.064 1.22a5.786 5.786 0 0 1-2.229 2.391Zm-1.78-8.604c-.498-.423-1.121-.635-1.868-.635-.365 0-.706.062-1.021.187a2.917 2.917 0 0 0-.847.51 2.943 2.943 0 0 0-.61.723 2.094 2.094 0 0 0-.286.846h5.503a2.467 2.467 0 0 0-.871-1.63ZM51.67 21.209h-3.56v-1.644c-.432.631-1 1.113-1.706 1.445a5.285 5.285 0 0 1-2.279.498 5.395 5.395 0 0 1-2.303-.498 5.834 5.834 0 0 1-1.843-1.358 6.303 6.303 0 0 1-1.233-2.042 7.143 7.143 0 0 1-.448-2.552c0-.913.15-1.76.448-2.54.299-.78.71-1.461 1.233-2.042a5.748 5.748 0 0 1 1.843-1.37 5.341 5.341 0 0 1 2.303-.498c.83 0 1.573.158 2.279.473a4.009 4.009 0 0 1 1.705 1.42V8.907h3.561v12.302Zm-9.72-4.906c.166.382.39.718.672 1.008a3.093 3.093 0 0 0 2.242.934 3.09 3.09 0 0 0 2.241-.934c.282-.29.506-.626.672-1.008a3.09 3.09 0 0 0 .25-1.245 3.09 3.09 0 0 0-.25-1.245 3.355 3.355 0 0 0-.672-1.009 3.093 3.093 0 0 0-2.241-.934 3.09 3.09 0 0 0-2.241.934c-.283.29-.507.627-.673 1.009a3.09 3.09 0 0 0-.249 1.245c0 .448.083.863.25 1.245ZM59.044 8.907h3.113v2.988h-3.113v4.508c0 .664.145 1.137.436 1.419.29.282.734.423 1.332.423h1.345v3.263h-2.54c-1.295 0-2.316-.378-3.063-1.133-.748-.756-1.121-1.823-1.121-3.2v-5.28H53.69V8.907h1.743V5.296h3.61v3.61ZM114.11 0h-.04v.04h.04V0Z" fill="#2B2F33"></path><path d="m1.78 9.658 2.486 1.658-2.982.193s-1.658.347-1.206 2.038c.453 1.691 2.063 1.162 2.063 1.162l2.68-1.324-1.325 2.68s-.53 1.608 1.162 2.062c1.692.453 2.038-1.206 2.038-1.206l.193-2.982 1.658 2.486s1.13 1.262 2.366.025c1.237-1.236-.025-2.365-.025-2.365l-2.486-1.659 2.982-.193s1.658-.346 1.206-2.037c-.453-1.692-2.063-1.163-2.063-1.163l-2.68 1.324 1.325-2.679S9.7 6.07 8.01 5.616C6.318 5.163 5.972 6.82 5.972 6.82l-.193 2.982L4.12 7.317s-1.13-1.261-2.366-.025C.518 8.53 1.78 9.658 1.78 9.658Z" fill="#4232F8"></path></svg>