<svg width="127px" height="47px" viewBox="0 0 200 74" fill="none" xmlns="http://www.w3.org/2000/svg">
<path d="M45.8372 41.7112V36.3751L35.0988 37.7084C32.3331 38.1041 30.0868 39.032 28.3586 40.4877C26.629 41.9466 25.766 44.0573 25.766 46.8245C25.766 49.0483 26.5183 50.7536 28.0257 51.9387C29.5308 53.1243 31.4688 53.7178 33.8391 53.7178C35.4192 53.7178 36.9377 53.3726 38.3947 52.6805C39.8502 51.9883 41.1349 51.0854 42.246 49.9744C43.3557 48.8625 44.2317 47.5908 44.8743 46.1578C45.5155 44.7249 45.8372 43.2428 45.8372 41.7112ZM23.9887 26.369C23.7415 26.6164 23.5188 26.7026 23.3225 26.6284C23.1248 26.5539 23.0262 26.3199 23.0262 25.9242V20.5144C25.0998 19.1311 27.4197 18.0433 29.9877 17.2524C32.5544 16.4625 35.1961 16.0669 37.9122 16.0669C42.7507 16.0669 46.2937 17.1788 48.5414 19.4026C50.7863 21.6249 51.9108 25.2826 51.9108 30.3718V58.1653H45.7636L45.4673 52.3089H45.3937C44.7516 53.3972 43.9488 54.3603 42.9858 55.1993C42.0229 56.0388 40.9613 56.743 39.8007 57.3124C38.6405 57.8785 37.4317 58.3122 36.1724 58.6091C34.9127 58.9047 33.6655 59.0539 32.4317 59.0539C30.4563 59.1021 28.6414 58.8802 26.9882 58.3868C25.3336 57.8924 23.9151 57.1507 22.7294 56.1625C21.5447 55.1753 20.6299 53.9397 19.9892 52.4567C19.3466 50.9751 19.0262 49.2693 19.0262 47.3443C19.0262 43.5889 20.1869 40.4631 22.5077 37.9678C24.8276 35.4744 28.285 33.8798 32.8762 33.1877L45.6155 31.3354V30.6674C45.6155 28.8884 45.4418 27.4063 45.0974 26.2207C44.7516 25.0357 44.2317 24.1082 43.5414 23.441C42.8497 22.7744 41.9738 22.305 40.9118 22.0326C39.8502 21.7625 38.6039 21.6249 37.1724 21.6249C34.8021 21.6249 32.5678 22.022 30.4697 22.8119C28.3702 23.6027 26.2109 24.7883 23.9887 26.369" fill="white"/>
<path d="M94.4241 25.8509H94.4977C96.0278 22.8367 97.9283 20.5754 100.2 19.0683C102.47 17.5622 104.941 16.8084 107.606 16.8084C110.025 16.8084 112.051 17.1911 113.681 17.9564C115.31 18.7232 116.631 19.8467 117.643 21.3292C118.654 22.8112 119.371 24.6403 119.79 26.8145C120.209 28.9882 120.42 31.4821 120.42 34.2994V58.1647H114.125V34.0765C114.125 29.9269 113.593 26.84 112.532 24.8126C111.47 22.7881 109.532 21.773 106.719 21.773C105.286 21.773 103.903 22.133 102.57 22.8492C101.238 23.565 100.052 24.5527 99.0153 25.8133C97.9792 27.0739 97.138 28.5555 96.4968 30.26C95.8542 31.9644 95.5338 33.8305 95.5338 35.8551L95.4607 58.1647H89.313V34.0765C89.313 29.9269 88.77 26.84 87.6839 24.8126C86.5968 22.7881 84.6473 21.773 81.8334 21.773C80.4001 21.773 79.0061 22.133 77.6478 22.8492C76.2899 23.565 75.0797 24.5527 74.0196 25.8133C72.9566 27.0739 72.1043 28.5555 71.4636 30.26C70.821 31.9644 70.5006 33.8305 70.5006 35.8551V58.1647H64.3534V17.697H70.5751L70.7969 23.7758H70.8719C71.4636 22.6889 72.1913 21.7114 73.0566 20.8469C73.9191 19.9838 74.8714 19.2546 75.908 18.6606C76.9441 18.0672 78.0432 17.6118 79.2038 17.2898C80.3631 16.9687 81.5371 16.8084 82.7214 16.8084C86.1283 16.8084 88.7204 17.5492 90.4977 19.0308C92.2755 20.5143 93.5829 22.7881 94.4241 25.8509Z" fill="white"/>
<path fill-rule="evenodd" clip-rule="evenodd" d="M191.247 58.0192H182.964V49.7305H191.247H191.247H199.53V58.0192H191.247H191.247ZM191.247 49.7305V41.4414H182.964V49.7305H191.247ZM191.247 33.1536V41.4414H182.964V33.1536V33.1532V24.8654H174.682V16.5768H182.964V8.28811H191.247V16.5768H199.53V24.8654H191.247V33.1532V33.1536ZM174.682 24.8654H168.154V33.1532V33.1536V41.4414H159.871V33.1536V33.1532V24.8654H151.589V16.5768H159.871V8.28857V8.28811V0.000370026H168.154V8.28811V8.28857V16.5768H174.682V24.8654ZM151.589 24.8654H143.307V16.5768H151.589V24.8654ZM135.024 24.8654V33.1532V33.1536V41.4414H143.306V33.1536V33.1532V24.8654V24.865V16.5768H135.024V24.865V24.8654ZM143.306 49.7305H135.024V41.4414H143.306V49.7305ZM151.589 58.0192H143.307V49.7305H151.589V58.0192ZM151.589 58.0192H159.871H159.872H168.154V49.7305H159.872H159.871H151.589V58.0192ZM168.154 49.7305H159.871V41.4414H168.154V49.7305Z" fill="#00BEF2"/>
<path fill-rule="evenodd" clip-rule="evenodd" d="M18.383 69.7962V69.256C18.383 69.06 18.3482 68.8784 18.2797 68.7112C18.2107 68.5444 18.1195 68.3994 18.0056 68.278C17.8913 68.1557 17.7566 68.0607 17.6005 67.9912C17.4441 67.9227 17.2783 67.8884 17.1038 67.8884C16.7223 67.8884 16.4269 68.0343 16.2177 68.3257C16.0089 68.6171 15.9043 69.0438 15.9043 69.6058C15.9043 70.0978 16.0126 70.4805 16.2297 70.7506C16.4468 71.0211 16.7353 71.1564 17.0959 71.1564C17.5038 71.1564 17.82 71.0304 18.0455 70.7784C18.2705 70.5263 18.383 70.1992 18.383 69.7962ZM16.913 73.1671C17.4478 73.1671 17.8265 73.0295 18.0492 72.752C18.2718 72.4749 18.383 72.0441 18.383 71.4585V71.0211C18.2186 71.2745 18.0255 71.4515 17.8029 71.5497C17.5806 71.6475 17.3181 71.6971 17.0163 71.6971C16.7144 71.6971 16.4482 71.6461 16.2177 71.5451C15.9876 71.4455 15.7969 71.3033 15.6455 71.1198C15.495 70.9377 15.3811 70.7191 15.3043 70.4638C15.2274 70.2104 15.189 69.9264 15.189 69.6132C15.189 68.8872 15.3464 68.3243 15.6617 67.924C15.9769 67.5242 16.4311 67.3236 17.0242 67.3236C17.3265 67.3236 17.5913 67.3834 17.8191 67.5029C18.0464 67.622 18.2209 67.7929 18.3431 68.0153H18.351L18.3751 67.4269H19.0579V71.3704C19.0579 71.7781 19.0186 72.133 18.939 72.4318C18.8598 72.7316 18.7339 72.9794 18.5617 73.1759C18.3894 73.3718 18.1686 73.5155 17.8982 73.6086C17.6283 73.7017 17.3024 73.7471 16.9209 73.7471C16.6404 73.7471 16.3941 73.7216 16.182 73.6679C15.9705 73.6155 15.7584 73.5363 15.5469 73.4302V72.8173C15.5469 72.7492 15.5756 72.7362 15.6339 72.7784C15.8723 72.915 16.0931 73.0151 16.2973 73.0758C16.501 73.137 16.7066 73.1671 16.913 73.1671ZM13.6477 69.1763H11.1926V69.1365C11.2246 68.9405 11.2796 68.7612 11.3593 68.6C11.4389 68.4379 11.5371 68.3012 11.6533 68.1905C11.7699 68.0793 11.9009 67.9922 12.0468 67.931C12.1926 67.8717 12.3472 67.8407 12.5116 67.8407C12.8611 67.8407 13.138 67.9505 13.3421 68.1701C13.5458 68.3911 13.6477 68.7154 13.6477 69.1448V69.1763ZM13.8861 67.8486C13.563 67.4988 13.1102 67.3236 12.5273 67.3236C12.2199 67.3236 11.9394 67.3783 11.6852 67.4867C11.431 67.5956 11.2121 67.7508 11.0296 67.9514C10.8468 68.1534 10.7051 68.3948 10.6046 68.6755C10.5042 68.9558 10.4537 69.269 10.4537 69.6132C10.4537 69.9741 10.5051 70.2933 10.6088 70.5718C10.7121 70.8497 10.856 71.0846 11.0417 71.275C11.2273 71.4654 11.4496 71.6123 11.7093 71.7128C11.9685 71.8124 12.2546 71.8639 12.5671 71.8639C12.8847 71.8639 13.1736 71.8328 13.4329 71.7726C13.6926 71.7114 13.9338 71.5961 14.156 71.4256V70.878C14.156 70.808 14.1269 70.7983 14.0685 70.846C13.825 71.016 13.588 71.1356 13.3574 71.2037C13.1273 71.2718 12.8954 71.3075 12.6625 71.3075C12.2176 71.3075 11.8625 71.1768 11.5977 70.9174C11.3329 70.6579 11.1954 70.2734 11.1847 69.7652V69.6929H14.3704V69.3672C14.3704 68.7042 14.2093 68.1988 13.8861 67.8486ZM9.60371 71.1082C9.66158 71.0661 9.69075 71.0814 9.69075 71.1564V71.6406C9.58473 71.7202 9.45649 71.7758 9.30556 71.8078C9.15464 71.8398 9.00788 71.8555 8.86483 71.8555C8.45649 71.8611 8.16437 71.78 7.98659 71.6137C7.80927 71.446 7.72039 71.1615 7.72039 70.7585V67.944H6.96576V67.427H7.72039V66.3535H8.40372V67.427H9.53195V67.944H8.40372V70.6547C8.40372 70.7714 8.40881 70.8696 8.41946 70.9493C8.43011 71.029 8.45418 71.0925 8.49122 71.1393C8.52825 71.1879 8.58381 71.2227 8.65788 71.2435C8.73196 71.2648 8.8301 71.275 8.95186 71.275C9.02594 71.275 9.12686 71.262 9.25371 71.2352C9.38103 71.2092 9.49769 71.1666 9.60371 71.1082ZM6.0361 69.1998V71.7683H5.35277V69.1841C5.35277 68.7389 5.28935 68.4081 5.16203 68.1903C5.03518 67.9735 4.79953 67.8642 4.45509 67.8642C4.28565 67.8642 4.11991 67.9026 3.95833 67.9795C3.79676 68.0564 3.6537 68.1625 3.52917 68.2978C3.40509 68.4331 3.30417 68.592 3.22778 68.775C3.15093 68.958 3.1125 69.1577 3.1125 69.3754V71.7683H2.43704V67.4268H3.12037L3.15232 68.0546H3.16019C3.22361 67.9439 3.30695 67.8429 3.41019 67.753C3.51343 67.6631 3.62593 67.5867 3.74815 67.5227C3.86944 67.4588 3.99815 67.4097 4.13333 67.3754C4.26852 67.3407 4.40231 67.3235 4.53426 67.3235C5.08518 67.3235 5.47314 67.4843 5.6986 67.8049C5.9236 68.1255 6.0361 68.5906 6.0361 69.1998ZM22.7367 67.9639C22.8163 67.9825 22.8931 68.0126 22.9672 68.0552C23.0311 68.1034 23.0626 68.0899 23.0626 68.0154V67.427C22.983 67.3848 22.9024 67.357 22.8205 67.3436C22.738 67.3306 22.6413 67.3237 22.5302 67.3237C22.3024 67.3237 22.0825 67.3876 21.8709 67.5145C21.6589 67.641 21.4973 67.8222 21.3862 68.0552L21.3547 67.427H20.6552L20.6631 71.7684H21.3464V69.3195C21.3464 69.1124 21.3783 68.9248 21.4418 68.7548C21.5056 68.5857 21.5885 68.4393 21.6922 68.317C21.7955 68.196 21.9149 68.102 22.0496 68.0357C22.1848 67.9686 22.3209 67.9357 22.4589 67.9357C22.5644 67.9357 22.6575 67.9459 22.7367 67.9639ZM26.5427 70.0033V69.4307L25.3909 69.5734C25.0941 69.616 24.8529 69.7156 24.6677 69.8718C24.4821 70.0288 24.3895 70.2554 24.3895 70.5519C24.3895 70.7905 24.4701 70.973 24.6321 71.1004C24.7932 71.2278 25.0011 71.2908 25.2557 71.2908C25.4247 71.2908 25.5876 71.2542 25.7441 71.1801C25.9006 71.106 26.0381 71.0091 26.1571 70.8896C26.2765 70.7701 26.3705 70.6334 26.4395 70.4801C26.508 70.3267 26.5427 70.1674 26.5427 70.0033ZM24.1992 68.3573C24.1724 68.3842 24.1488 68.3925 24.1275 68.3851C24.1062 68.3772 24.0955 68.3522 24.0955 68.3096V67.7295C24.3182 67.5808 24.5668 67.4645 24.8427 67.3798C25.1177 67.2945 25.4015 67.2524 25.6927 67.2524C26.2117 67.2524 26.5918 67.3714 26.8326 67.61C27.0738 67.8486 27.1941 68.241 27.1941 68.7868V71.7685H26.5344L26.5034 71.1398H26.4951C26.4261 71.2565 26.34 71.3599 26.2367 71.4502C26.1335 71.5396 26.0196 71.6151 25.8951 71.6767C25.771 71.7374 25.6409 71.7842 25.5057 71.8157C25.371 71.8472 25.2372 71.8639 25.1048 71.8639C24.8927 71.8681 24.6983 71.8454 24.5205 71.7916C24.3432 71.7388 24.1909 71.6591 24.064 71.554C23.9367 71.4479 23.8386 71.3154 23.7701 71.156C23.7011 70.9971 23.6664 70.8141 23.6664 70.6075C23.6664 70.2049 23.7909 69.8695 24.04 69.6017C24.289 69.3339 24.6599 69.1634 25.1525 69.0884L26.5187 68.8901V68.8178C26.5187 68.6278 26.5001 68.4685 26.4631 68.3415C26.4261 68.2146 26.3705 68.115 26.2964 68.0436C26.2224 67.9718 26.1279 67.9213 26.014 67.8917C25.9006 67.8634 25.7668 67.8486 25.6131 67.8486C25.3589 67.8486 25.1191 67.8903 24.8941 67.976C24.6691 68.0608 24.4372 68.1877 24.1992 68.3573ZM30.7933 71.1564C30.7933 71.0814 30.7637 71.0661 30.7058 71.1082C30.5998 71.1666 30.4836 71.2092 30.3563 71.2352C30.229 71.262 30.1285 71.275 30.0545 71.275C29.9322 71.275 29.8345 71.2648 29.7605 71.2435C29.6859 71.2227 29.6304 71.1879 29.5938 71.1393C29.5568 71.0925 29.5327 71.029 29.522 70.9493C29.5114 70.8696 29.5058 70.7714 29.5058 70.6547V67.944H30.6345V67.427H29.5058V66.3535H28.823V67.427H28.0679V67.944H28.823V70.7585C28.823 71.1615 28.9114 71.446 29.0887 71.6137C29.2665 71.78 29.5586 71.8611 29.967 71.8555C30.11 71.8555 30.2572 71.8398 30.4077 71.8078C30.5591 71.7758 30.6873 71.7202 30.7933 71.6406V71.1564ZM32.295 69.1763H34.75V69.1448C34.75 68.7154 34.6482 68.3911 34.444 68.1701C34.2403 67.9505 33.9635 67.8407 33.6139 67.8407C33.4496 67.8407 33.295 67.8717 33.1491 67.931C33.0033 67.9922 32.8723 68.0793 32.7556 68.1905C32.6394 68.3012 32.5413 68.4379 32.4616 68.6C32.382 68.7612 32.3269 68.9405 32.295 69.1365V69.1763ZM33.6297 67.3236C34.2125 67.3236 34.6653 67.4988 34.988 67.8486C35.3116 68.1988 35.4727 68.7042 35.4727 69.3672V69.6929H32.2871V69.7652C32.2977 70.2734 32.4352 70.6579 32.7001 70.9174C32.9649 71.1768 33.3195 71.3075 33.7649 71.3075C33.9977 71.3075 34.2297 71.2718 34.4598 71.2037C34.6903 71.1356 34.9274 71.016 35.1709 70.846C35.2292 70.7983 35.2584 70.808 35.2584 70.878V71.4256C35.0362 71.5961 34.795 71.7114 34.5352 71.7726C34.276 71.8328 33.9871 71.8639 33.6695 71.8639C33.3565 71.8639 33.0709 71.8124 32.8116 71.7128C32.5519 71.6123 32.3292 71.4654 32.144 71.275C31.9584 71.0846 31.8144 70.8497 31.7107 70.5718C31.6075 70.2933 31.5561 69.9741 31.5561 69.6132C31.5561 69.269 31.6061 68.9558 31.707 68.6755C31.8075 68.3948 31.9491 68.1534 32.132 67.9514C32.3144 67.7508 32.5334 67.5956 32.7876 67.4867C33.0417 67.3783 33.3223 67.3236 33.6297 67.3236ZM39.4852 69.1915V69.8758C39.4852 70.0778 39.4561 70.2645 39.3977 70.4363C39.3394 70.6087 39.2561 70.7583 39.1477 70.8857C39.0389 71.0131 38.9065 71.1137 38.75 71.1878C38.594 71.2619 38.4149 71.2994 38.2139 71.2994C37.8644 71.2994 37.5811 71.1577 37.3635 70.8737C37.1468 70.5902 37.038 70.194 37.038 69.6854C37.038 69.1021 37.1491 68.6569 37.3718 68.3492C37.5945 68.0421 37.9014 67.8883 38.2936 67.8883C38.4681 67.8883 38.6283 67.9239 38.7741 67.9948C38.92 68.0671 39.0454 68.1625 39.1514 68.2821C39.2575 68.4007 39.3394 68.5392 39.3977 68.6953C39.4561 68.8519 39.4852 69.0168 39.4852 69.1915ZM39.4375 71.236H39.4454L39.4695 71.7683H40.1843V65.3045H39.501V67.936H39.4931C39.345 67.7507 39.1658 67.6024 38.9542 67.4908C38.7426 67.3796 38.4973 67.3235 38.2172 67.3235C37.895 67.3235 37.6163 67.3874 37.3811 67.5144C37.1459 67.6418 36.9505 67.8127 36.7945 68.0277C36.6389 68.2422 36.5241 68.4942 36.4496 68.7829C36.376 69.072 36.3389 69.3754 36.3389 69.6923C36.3389 70.0055 36.3746 70.2927 36.4459 70.5559C36.5172 70.8181 36.6255 71.0442 36.7709 71.236C36.9163 71.4264 37.1024 71.5746 37.3297 71.6807C37.5565 71.7868 37.826 71.8396 38.138 71.8396C38.4181 71.8396 38.6663 71.7979 38.8829 71.7169C39.0991 71.6344 39.2843 71.4741 39.4375 71.236ZM45.8653 66.2903H45.8574L44.8718 69.4786H46.906L45.8653 66.2903ZM46.3259 65.7496L48.3838 71.7682H47.6606L47.1204 70.0508H44.6653L44.1176 71.7682H43.3944L45.444 65.7496H46.3259ZM53.0556 71.7683V69.1998C53.0556 68.5906 52.9431 68.1255 52.7181 67.8049C52.4927 67.4843 52.1047 67.3235 51.5538 67.3235C51.4214 67.3235 51.2876 67.3407 51.1529 67.3754C51.0177 67.4097 50.889 67.4588 50.7672 67.5227C50.6455 67.5867 50.533 67.6631 50.4297 67.753C50.326 67.8429 50.2427 67.9439 50.1793 68.0546H50.1714L50.1395 67.4268H49.4566V71.7683H50.1316V69.3754C50.1316 69.1577 50.17 68.958 50.2469 68.775C50.3237 68.592 50.4242 68.4331 50.5487 68.2978C50.6732 68.1625 50.8163 68.0564 50.9779 67.9795C51.1394 67.9026 51.3047 67.8642 51.4742 67.8642C51.8186 67.8642 52.0543 67.9735 52.1816 68.1903C52.3089 68.4081 52.3718 68.7389 52.3718 69.1841V71.7683H53.0556ZM55.2803 71.7677H54.5812V67.4262H55.2803V71.7677ZM54.4382 66.0438C54.4382 65.9002 54.4845 65.7811 54.5771 65.6856C54.6697 65.5902 54.7873 65.543 54.9303 65.543C55.0683 65.543 55.1849 65.5902 55.2803 65.6856C55.3757 65.7811 55.4229 65.9002 55.4229 66.0438C55.4229 66.1818 55.3757 66.2967 55.2803 66.3899C55.1849 66.482 55.0683 66.5288 54.9303 66.5288C54.7873 66.5288 54.6697 66.482 54.5771 66.3899C54.4845 66.2967 54.4382 66.1818 54.4382 66.0438ZM60.1265 68.3018H60.1187C60.0284 67.9733 59.8881 67.7296 59.6974 67.5703C59.5071 67.4109 59.2289 67.3317 58.8636 67.3317C58.7363 67.3317 58.6103 67.3488 58.4863 67.3835C58.3613 67.4183 58.2437 67.4665 58.1321 67.5304C58.021 67.5943 57.9191 67.6726 57.8265 67.7653C57.734 67.8575 57.6557 67.9627 57.5923 68.0794H57.5844L57.5603 67.4262H56.8928V71.7676H57.5525V69.3748C57.5525 69.1579 57.5867 68.9578 57.6557 68.7748C57.7247 68.5918 57.8159 68.4329 57.9298 68.2976C58.0437 68.1623 58.1733 68.0567 58.3191 67.9798C58.4645 67.9029 58.614 67.8644 58.7682 67.8644C59.0701 67.8644 59.2793 67.9733 59.3955 68.1906C59.5122 68.4079 59.5705 68.7382 59.5705 69.1834V71.7676H60.2298L60.2377 69.3748C60.2377 69.1579 60.2724 68.9578 60.3414 68.7748C60.4099 68.5918 60.5002 68.4329 60.6113 68.2976C60.7224 68.1623 60.8497 68.0567 60.9927 67.9798C61.1358 67.9029 61.2839 67.8644 61.4376 67.8644C61.7395 67.8644 61.9474 67.9733 62.0613 68.1906C62.1751 68.4079 62.2321 68.7382 62.2321 69.1834V71.7676H62.9076V69.208C62.9076 68.9059 62.8849 68.6386 62.84 68.4056C62.7951 68.1721 62.7177 67.9761 62.6094 67.8167C62.5011 67.6573 62.3594 67.5374 62.1844 67.4549C62.0094 67.3729 61.7923 67.3317 61.533 67.3317C61.2469 67.3317 60.9821 67.4123 60.7386 67.574C60.4946 67.7356 60.2909 67.9784 60.1265 68.3018ZM66.8881 70.0033V69.4307L65.7358 69.5734C65.439 69.616 65.1983 69.7156 65.0127 69.8718C64.8275 70.0288 64.7349 70.2554 64.7349 70.5519C64.7349 70.7905 64.8154 70.973 64.977 71.1004C65.1386 71.2278 65.3465 71.2908 65.6006 71.2908C65.7701 71.2908 65.933 71.2542 66.0895 71.1801C66.2455 71.106 66.3835 71.0091 66.5025 70.8896C66.6215 70.7701 66.7159 70.6334 66.7844 70.4801C66.8534 70.3267 66.8881 70.1674 66.8881 70.0033ZM64.5441 68.3573C64.5173 68.3842 64.4937 68.3925 64.4728 68.3851C64.4516 68.3772 64.4409 68.3522 64.4409 68.3096V67.7295C64.6631 67.5808 64.9122 67.4645 65.1877 67.3798C65.4631 67.2945 65.7465 67.2524 66.0381 67.2524C66.5566 67.2524 66.9367 67.3714 67.1779 67.61C67.4187 67.8486 67.5395 68.241 67.5395 68.7868V71.7685H66.8798L66.8483 71.1398H66.84C66.7715 71.2565 66.6853 71.3599 66.5821 71.4502C66.4789 71.5396 66.365 71.6151 66.2404 71.6767C66.1159 71.7374 65.9863 71.7842 65.8511 71.8157C65.7159 71.8472 65.5821 71.8639 65.4502 71.8639C65.2381 71.8681 65.0432 71.8454 64.8659 71.7916C64.6886 71.7388 64.5358 71.6591 64.409 71.554C64.2816 71.4479 64.184 71.3154 64.115 71.156C64.046 70.9971 64.0117 70.8141 64.0117 70.6075C64.0117 70.2049 64.1363 69.8695 64.3854 69.6017C64.634 69.3339 65.0048 69.1634 65.4974 69.0884L66.864 68.8901V68.8178C66.864 68.6278 66.8455 68.4685 66.8085 68.3415C66.7715 68.2146 66.7159 68.115 66.6418 68.0436C66.5677 67.9718 66.4733 67.9213 66.3594 67.8917C66.2455 67.8634 66.1122 67.8486 65.9585 67.8486C65.7039 67.8486 65.4645 67.8903 65.2391 67.976C65.0141 68.0608 64.7826 68.1877 64.5441 68.3573ZM69.2238 71.7677H69.9071V65.3039H69.2238V71.7677ZM76.9225 71.7683H76.3743L74.5947 66.9334L74.4753 66.4099L74.4831 66.9422V71.7683H73.816V65.7497H74.8567L76.5174 70.3455L76.6526 70.8065L76.7794 70.3455L78.44 65.7497H79.4729V71.7683H78.8132V66.9422L78.8215 66.4099L78.6942 66.9334L76.9225 71.7683ZM84.0491 69.1763H81.5941V69.1365C81.626 68.9405 81.6811 68.7612 81.7607 68.6C81.8404 68.4379 81.9385 68.3012 82.0547 68.1905C82.1714 68.0793 82.3024 67.9922 82.4482 67.931C82.5941 67.8717 82.7487 67.8407 82.913 67.8407C83.2626 67.8407 83.5394 67.9505 83.7436 68.1701C83.9473 68.3911 84.0491 68.7154 84.0491 69.1448V69.1763ZM84.2876 67.8486C83.9644 67.4988 83.5116 67.3236 82.9288 67.3236C82.6214 67.3236 82.3408 67.3783 82.0866 67.4867C81.8325 67.5956 81.6135 67.7508 81.4311 67.9514C81.2482 68.1534 81.1066 68.3948 81.0061 68.6755C80.9056 68.9558 80.8552 69.269 80.8552 69.6132C80.8552 69.9741 80.9066 70.2933 81.0103 70.5718C81.1135 70.8497 81.2575 71.0846 81.4431 71.275C81.6283 71.4654 81.851 71.6123 82.1107 71.7128C82.37 71.8124 82.6561 71.8639 82.9686 71.8639C83.2862 71.8639 83.5751 71.8328 83.8343 71.7726C84.094 71.7114 84.3353 71.5961 84.5575 71.4256V70.878C84.5575 70.808 84.5283 70.7983 84.47 70.846C84.2265 71.016 83.9894 71.1356 83.7589 71.2037C83.5288 71.2718 83.2968 71.3075 83.064 71.3075C82.6191 71.3075 82.264 71.1768 81.9991 70.9174C81.7343 70.6579 81.5968 70.2734 81.5862 69.7652V69.6929H84.7718V69.3672C84.7718 68.7042 84.6107 68.1988 84.2876 67.8486ZM88.7846 69.8758V69.1915C88.7846 69.0168 88.7554 68.8519 88.6971 68.6953C88.6387 68.5392 88.5568 68.4007 88.4508 68.2821C88.3447 68.1625 88.2193 68.0671 88.0734 67.9948C87.9276 67.9239 87.7674 67.8883 87.5929 67.8883C87.2008 67.8883 86.8938 68.0421 86.6711 68.3492C86.4484 68.6569 86.3373 69.1021 86.3373 69.6854C86.3373 70.194 86.4461 70.5902 86.6633 70.8737C86.8804 71.1577 87.1637 71.2994 87.5133 71.2994C87.7142 71.2994 87.8933 71.2619 88.0494 71.1878C88.2058 71.1137 88.3383 71.0131 88.4471 70.8857C88.5554 70.7583 88.6387 70.6087 88.6971 70.4363C88.7554 70.2645 88.7846 70.0778 88.7846 69.8758ZM88.7447 71.236H88.7369C88.5836 71.4741 88.3989 71.6344 88.1822 71.7169C87.9656 71.7979 87.7174 71.8396 87.4373 71.8396C87.1253 71.8396 86.8559 71.7868 86.629 71.6807C86.4017 71.5746 86.2156 71.4264 86.0702 71.236C85.9248 71.0442 85.8165 70.8181 85.7452 70.5559C85.6739 70.2927 85.6383 70.0055 85.6383 69.6923C85.6383 69.3754 85.6753 69.072 85.7489 68.7829C85.8234 68.4942 85.9383 68.2422 86.0938 68.0277C86.2498 67.8127 86.4452 67.6418 86.6804 67.5144C86.9156 67.3874 87.1943 67.3235 87.5165 67.3235C87.7966 67.3235 88.042 67.3796 88.2535 67.4908C88.4651 67.6024 88.6447 67.7507 88.7924 67.936H88.8003V65.3045H89.4836V71.7683H88.7688L88.7447 71.236ZM91.0888 71.7677H91.7879V67.4262H91.0888V71.7677ZM91.0851 65.6856C90.9921 65.7811 90.9453 65.9002 90.9453 66.0438C90.9453 66.1818 90.9921 66.2967 91.0851 66.3899C91.1768 66.482 91.2953 66.5288 91.4379 66.5288C91.5763 66.5288 91.6925 66.482 91.7879 66.3899C91.8833 66.2967 91.931 66.1818 91.931 66.0438C91.931 65.9002 91.8833 65.7811 91.7879 65.6856C91.6925 65.5902 91.5763 65.543 91.4379 65.543C91.2953 65.543 91.1768 65.5902 91.0851 65.6856ZM96.499 70.8779C96.5574 70.8195 96.5865 70.8297 96.5865 70.9089V71.4422C96.4171 71.6016 96.2222 71.7141 96.0027 71.7799C95.7828 71.8466 95.5537 71.8795 95.3152 71.8795C94.9819 71.8795 94.6796 71.8323 94.4097 71.7364C94.1393 71.6405 93.906 71.5006 93.7102 71.3148C93.5143 71.1295 93.3634 70.8964 93.2574 70.6152C93.1514 70.3345 93.0986 70.0055 93.0986 69.6298C93.0986 69.2796 93.149 68.9627 93.2495 68.6791C93.35 68.3961 93.4958 68.1533 93.6865 67.9523C93.8773 67.7507 94.1088 67.5955 94.3815 67.4866C94.6546 67.3782 94.9606 67.3236 95.2995 67.3236C95.5324 67.3236 95.7574 67.3551 95.9745 67.419C96.1916 67.4829 96.3851 67.5839 96.5546 67.7215V68.2701C96.5546 68.3595 96.5254 68.3706 96.4676 68.3011C96.2976 68.1473 96.1176 68.0421 95.9273 67.9838C95.7365 67.9254 95.5324 67.8957 95.3152 67.8957C95.0662 67.8957 94.849 67.943 94.6639 68.0356C94.4782 68.1274 94.325 68.2529 94.2032 68.4091C94.081 68.5656 93.9884 68.7477 93.925 68.9571C93.8611 69.1675 93.8296 69.3884 93.8296 69.6215C93.8296 69.8707 93.8611 70.0977 93.925 70.3053C93.9884 70.5119 94.0838 70.6907 94.2111 70.8418C94.3379 70.9928 94.4981 71.1096 94.6916 71.192C94.8852 71.2736 95.1111 71.3148 95.3708 71.3148C95.5935 71.3148 95.7949 71.2805 95.9745 71.2115C96.1546 71.1429 96.3296 71.0317 96.499 70.8779ZM97.7147 71.7677H98.4138V67.4262H97.7147V71.7677ZM97.711 65.6856C97.618 65.7811 97.5712 65.9002 97.5712 66.0438C97.5712 66.1818 97.618 66.2967 97.711 66.3899C97.8031 66.482 97.9212 66.5288 98.0643 66.5288C98.2022 66.5288 98.3189 66.482 98.4138 66.3899C98.5092 66.2967 98.5568 66.1818 98.5568 66.0438C98.5568 65.9002 98.5092 65.7811 98.4138 65.6856C98.3189 65.5902 98.2022 65.543 98.0643 65.543C97.9212 65.543 97.8031 65.5902 97.711 65.6856ZM103.626 69.1998V71.7683H102.942V69.1841C102.942 68.7389 102.879 68.4081 102.752 68.1903C102.625 67.9735 102.389 67.8642 102.044 67.8642C101.875 67.8642 101.71 67.9026 101.548 67.9795C101.386 68.0564 101.243 68.1625 101.119 68.2978C100.994 68.4331 100.894 68.592 100.817 68.775C100.741 68.958 100.702 69.1577 100.702 69.3754V71.7683H100.027V67.4268H100.71L100.741 68.0546H100.749C100.813 67.9439 100.897 67.8429 101 67.753C101.103 67.6631 101.216 67.5867 101.337 67.5227C101.459 67.4588 101.588 67.4097 101.723 67.3754C101.858 67.3407 101.992 67.3235 102.124 67.3235C102.675 67.3235 103.063 67.4843 103.288 67.8049C103.513 68.1255 103.626 68.5906 103.626 69.1998ZM108.019 69.1763H105.564V69.1365C105.596 68.9405 105.651 68.7612 105.731 68.6C105.811 68.4379 105.909 68.3012 106.025 68.1905C106.142 68.0793 106.273 67.9922 106.418 67.931C106.564 67.8717 106.719 67.8407 106.883 67.8407C107.233 67.8407 107.51 67.9505 107.713 68.1701C107.918 68.3911 108.019 68.7154 108.019 69.1448V69.1763ZM108.257 67.8486C107.935 67.4988 107.481 67.3236 106.899 67.3236C106.592 67.3236 106.311 67.3783 106.057 67.4867C105.803 67.5956 105.584 67.7508 105.401 67.9514C105.218 68.1534 105.077 68.3948 104.976 68.6755C104.875 68.9558 104.825 69.269 104.825 69.6132C104.825 69.9741 104.877 70.2933 104.98 70.5718C105.083 70.8497 105.228 71.0846 105.413 71.275C105.599 71.4654 105.821 71.6123 106.081 71.7128C106.34 71.8124 106.626 71.8639 106.939 71.8639C107.256 71.8639 107.545 71.8328 107.805 71.7726C108.064 71.7114 108.305 71.5961 108.528 71.4256V70.878C108.528 70.808 108.499 70.7983 108.44 70.846C108.197 71.016 107.96 71.1356 107.729 71.2037C107.499 71.2718 107.267 71.3075 107.034 71.3075C106.589 71.3075 106.234 71.1768 105.969 70.9174C105.705 70.6579 105.567 70.2734 105.556 69.7652V69.6929H108.742V69.3672C108.742 68.7042 108.581 68.1988 108.257 67.8486ZM113.685 66.3378H112.914V71.1722H113.645C114.45 71.1722 115.076 70.9693 115.524 70.5639C115.971 70.1581 116.195 69.5521 116.195 68.7469C116.195 67.1407 115.358 66.3378 113.685 66.3378ZM113.631 71.7684H112.215V65.749H113.695C115.87 65.749 116.958 66.7432 116.958 68.7311C116.958 69.256 116.87 69.7082 116.695 70.0909C116.52 70.4722 116.281 70.7872 115.979 71.0369C115.677 71.2862 115.324 71.4701 114.92 71.5891C114.517 71.7087 114.087 71.7684 113.631 71.7684ZM118.292 71.7677H118.991V67.4262H118.292V71.7677ZM118.288 65.6856C118.196 65.7811 118.149 65.9002 118.149 66.0438C118.149 66.1818 118.196 66.2967 118.288 66.3899C118.381 66.482 118.499 66.5288 118.642 66.5288C118.78 66.5288 118.896 66.482 118.991 66.3899C119.087 66.2967 119.135 66.1818 119.135 66.0438C119.135 65.9002 119.087 65.7811 118.991 65.6856C118.896 65.5902 118.78 65.543 118.642 65.543C118.499 65.543 118.381 65.5902 118.288 65.6856ZM123.393 69.7962V69.256C123.393 69.06 123.359 68.8784 123.29 68.7112C123.221 68.5444 123.13 68.3994 123.016 68.278C122.901 68.1557 122.767 68.0607 122.611 67.9912C122.454 67.9227 122.288 67.8884 122.114 67.8884C121.732 67.8884 121.437 68.0343 121.228 68.3257C121.019 68.6171 120.914 69.0438 120.914 69.6058C120.914 70.0978 121.023 70.4805 121.24 70.7506C121.457 71.0211 121.745 71.1564 122.106 71.1564C122.514 71.1564 122.831 71.0304 123.056 70.7784C123.281 70.5263 123.393 70.1992 123.393 69.7962ZM121.924 73.1671C122.458 73.1671 122.837 73.0295 123.059 72.752C123.282 72.4749 123.393 72.0441 123.393 71.4585V71.0211C123.229 71.2745 123.036 71.4515 122.813 71.5497C122.591 71.6475 122.328 71.6971 122.026 71.6971C121.725 71.6971 121.458 71.6461 121.228 71.5451C120.998 71.4455 120.807 71.3033 120.656 71.1198C120.505 70.9377 120.391 70.7191 120.314 70.4638C120.238 70.2104 120.199 69.9264 120.199 69.6132C120.199 68.8872 120.357 68.3243 120.672 67.924C120.987 67.5242 121.441 67.3236 122.035 67.3236C122.337 67.3236 122.601 67.3834 122.829 67.5029C123.057 67.622 123.232 67.7929 123.354 68.0153H123.361L123.385 67.4269H124.069V71.3704C124.069 71.7781 124.029 72.133 123.95 72.4318C123.87 72.7316 123.744 72.9794 123.572 73.1759C123.4 73.3718 123.179 73.5155 122.908 73.6086C122.638 73.7017 122.313 73.7471 121.931 73.7471C121.651 73.7471 121.404 73.7216 121.193 73.6679C120.981 73.6155 120.769 73.5363 120.557 73.4302V72.8173C120.557 72.7492 120.586 72.7362 120.644 72.7784C120.882 72.915 121.104 73.0151 121.307 73.0758C121.512 73.137 121.717 73.1671 121.924 73.1671ZM125.698 71.7677H126.397V67.4262H125.698V71.7677ZM125.693 65.6856C125.6 65.7811 125.554 65.9002 125.554 66.0438C125.554 66.1818 125.6 66.2967 125.693 66.3899C125.786 66.482 125.904 66.5288 126.047 66.5288C126.185 66.5288 126.301 66.482 126.397 66.3899C126.492 66.2967 126.54 66.1818 126.54 66.0438C126.54 65.9002 126.492 65.7811 126.397 65.6856C126.301 65.5902 126.185 65.543 126.047 65.543C125.904 65.543 125.786 65.5902 125.693 65.6856ZM130.075 71.1082C130.133 71.0661 130.162 71.0814 130.162 71.1564V71.6406C130.057 71.7202 129.928 71.7758 129.777 71.8078C129.626 71.8398 129.479 71.8555 129.336 71.8555C128.928 71.8611 128.636 71.78 128.458 71.6137C128.281 71.446 128.192 71.1615 128.192 70.7585V67.944H127.437V67.427H128.192V66.3535H128.875V67.427H130.004V67.944H128.875V70.6547C128.875 70.7714 128.88 70.8696 128.891 70.9493C128.902 71.029 128.926 71.0925 128.963 71.1393C129 71.1879 129.055 71.2227 129.13 71.2435C129.204 71.2648 129.302 71.275 129.424 71.275C129.498 71.275 129.598 71.262 129.726 71.2352C129.853 71.2092 129.969 71.1666 130.075 71.1082ZM133.738 69.4307V70.0033C133.738 70.1674 133.703 70.3267 133.634 70.4801C133.565 70.6334 133.471 70.7701 133.352 70.8896C133.233 71.0091 133.096 71.106 132.939 71.1801C132.783 71.2542 132.62 71.2908 132.451 71.2908C132.196 71.2908 131.988 71.2278 131.827 71.1004C131.665 70.973 131.584 70.7905 131.584 70.5519C131.584 70.2554 131.677 70.0288 131.863 69.8718C132.048 69.7156 132.289 69.616 132.586 69.5734L133.738 69.4307ZM131.322 68.3851C131.344 68.3925 131.367 68.3842 131.394 68.3573C131.632 68.1877 131.864 68.0608 132.089 67.976C132.314 67.8903 132.554 67.8486 132.808 67.8486C132.962 67.8486 133.096 67.8634 133.209 67.8917C133.323 67.9213 133.417 67.9718 133.491 68.0436C133.565 68.115 133.621 68.2146 133.658 68.3415C133.695 68.4685 133.714 68.6278 133.714 68.8178V68.8901L132.347 69.0884C131.855 69.1634 131.484 69.3339 131.235 69.6017C130.986 69.8695 130.862 70.2049 130.862 70.6075C130.862 70.8141 130.896 70.9971 130.965 71.156C131.034 71.3154 131.132 71.4479 131.259 71.554C131.386 71.6591 131.538 71.7388 131.715 71.7916C131.893 71.8454 132.088 71.8681 132.3 71.8639C132.432 71.8639 132.566 71.8472 132.701 71.8157C132.836 71.7842 132.966 71.7374 133.09 71.6767C133.215 71.6151 133.328 71.5396 133.432 71.4502C133.535 71.3599 133.621 71.2565 133.69 71.1398H133.698L133.729 71.7685H134.389V68.7868C134.389 68.241 134.269 67.8486 134.027 67.61C133.787 67.3714 133.407 67.2524 132.888 67.2524C132.596 67.2524 132.313 67.2945 132.038 67.3798C131.762 67.4645 131.513 67.5808 131.29 67.7295V68.3096C131.29 68.3522 131.301 68.3772 131.322 68.3851ZM136.757 71.7677H136.073V65.3039H136.757V71.7677ZM142.104 71.7683H142.803V66.346H144.845V65.7497H140.045V66.346H142.104V71.7683ZM147.538 68.0552C147.464 68.0126 147.387 67.9825 147.308 67.9639C147.229 67.9459 147.135 67.9357 147.029 67.9357C146.892 67.9357 146.756 67.9686 146.621 68.0357C146.486 68.102 146.366 68.196 146.263 68.317C146.16 68.4393 146.076 68.5857 146.013 68.7548C145.949 68.9248 145.917 69.1124 145.917 69.3195V71.7684H145.234L145.226 67.427H145.925L145.957 68.0552C146.068 67.8222 146.23 67.641 146.442 67.5145C146.654 67.3876 146.873 67.3237 147.101 67.3237C147.212 67.3237 147.309 67.3306 147.391 67.3436C147.473 67.357 147.554 67.3848 147.634 67.427V68.0154C147.634 68.0899 147.602 68.1034 147.538 68.0552ZM151.114 69.4307V70.0033C151.114 70.1674 151.079 70.3267 151.01 70.4801C150.941 70.6334 150.847 70.7701 150.728 70.8896C150.609 71.0091 150.471 71.106 150.315 71.1801C150.159 71.2542 149.996 71.2908 149.827 71.2908C149.572 71.2908 149.364 71.2278 149.203 71.1004C149.041 70.973 148.961 70.7905 148.961 70.5519C148.961 70.2554 149.053 70.0288 149.239 69.8718C149.424 69.7156 149.665 69.616 149.962 69.5734L151.114 69.4307ZM148.698 68.3851C148.72 68.3925 148.743 68.3842 148.77 68.3573C149.008 68.1877 149.24 68.0608 149.465 67.976C149.69 67.8903 149.93 67.8486 150.184 67.8486C150.338 67.8486 150.471 67.8634 150.585 67.8917C150.699 67.9213 150.793 67.9718 150.867 68.0436C150.941 68.115 150.997 68.2146 151.034 68.3415C151.071 68.4685 151.09 68.6278 151.09 68.8178V68.8901L149.723 69.0884C149.231 69.1634 148.86 69.3339 148.611 69.6017C148.362 69.8695 148.238 70.2049 148.238 70.6075C148.238 70.8141 148.272 70.9971 148.341 71.156C148.409 71.3154 148.508 71.4479 148.635 71.554C148.762 71.6591 148.914 71.7388 149.091 71.7916C149.269 71.8454 149.464 71.8681 149.676 71.8639C149.808 71.8639 149.942 71.8472 150.077 71.8157C150.212 71.7842 150.342 71.7374 150.466 71.6767C150.59 71.6151 150.704 71.5396 150.808 71.4502C150.911 71.3599 150.997 71.2565 151.066 71.1398H151.074L151.106 71.7685H151.765V68.7868C151.765 68.241 151.645 67.8486 151.403 67.61C151.163 67.3714 150.783 67.2524 150.264 67.2524C149.972 67.2524 149.689 67.2945 149.414 67.3798C149.138 67.4645 148.889 67.5808 148.666 67.7295V68.3096C148.666 68.3522 148.677 68.3772 148.698 68.3851ZM156.683 69.1998V71.7683H156V69.1841C156 68.7389 155.937 68.4081 155.809 68.1903C155.682 67.9735 155.446 67.8642 155.102 67.8642C154.933 67.8642 154.767 67.9026 154.606 67.9795C154.444 68.0564 154.301 68.1625 154.177 68.2978C154.052 68.4331 153.952 68.592 153.875 68.775C153.798 68.958 153.759 69.1577 153.759 69.3754V71.7683H153.084V67.4268H153.767L153.799 68.0546H153.807C153.871 67.9439 153.954 67.8429 154.058 67.753C154.161 67.6631 154.273 67.5867 154.395 67.5227C154.517 67.4588 154.646 67.4097 154.781 67.3754C154.915 67.3407 155.049 67.3235 155.182 67.3235C155.733 67.3235 156.121 67.4843 156.346 67.8049C156.571 68.1255 156.683 68.5906 156.683 69.1998ZM158.757 71.1997C158.513 71.1177 158.256 71.0001 157.987 70.8458C157.933 70.8143 157.907 70.8328 157.907 70.9014V71.4504C158.14 71.6042 158.386 71.714 158.646 71.7802C158.905 71.8465 159.17 71.8789 159.441 71.8789C159.679 71.8789 159.899 71.8507 160.1 71.7923C160.301 71.7334 160.474 71.6482 160.62 71.5379C160.766 71.4263 160.88 71.291 160.962 71.1321C161.044 70.9723 161.085 70.7934 161.085 70.5914C161.085 70.4168 161.055 70.2671 160.994 70.1416C160.933 70.0184 160.849 69.9081 160.743 69.8127C160.637 69.7163 160.511 69.632 160.366 69.5579C160.22 69.4837 160.062 69.4087 159.893 69.335L159.369 69.1048C159.205 69.0408 159.062 68.9593 158.94 68.8583C158.818 68.7578 158.757 68.6035 158.757 68.3973C158.757 68.2009 158.824 68.06 158.96 67.9762C159.095 67.8909 159.279 67.8483 159.512 67.8483C159.755 67.8483 159.98 67.8882 160.187 67.9679C160.394 68.0475 160.605 68.1698 160.823 68.3338C160.87 68.3811 160.894 68.3672 160.894 68.2935V67.7126C160.672 67.575 160.451 67.4763 160.231 67.4152C160.011 67.3545 159.782 67.323 159.544 67.323C159.062 67.323 158.69 67.4267 158.428 67.6329C158.165 67.8409 158.034 68.111 158.034 68.4441C158.034 68.7471 158.13 68.9963 158.324 69.1923C158.517 69.3883 158.81 69.5713 159.202 69.7409L159.686 69.9475C159.904 70.0378 160.069 70.1346 160.183 70.238C160.297 70.3413 160.354 70.4617 160.354 70.5998C160.354 70.8375 160.274 71.0181 160.116 71.14C159.957 71.2614 159.726 71.323 159.424 71.323C159.223 71.323 159.001 71.2813 158.757 71.1997ZM164.461 65.837C164.398 65.8157 164.334 65.7999 164.271 65.7888C164.207 65.7786 164.138 65.7726 164.064 65.7726C163.815 65.7726 163.629 65.8384 163.504 65.9681C163.379 66.0973 163.317 66.3406 163.317 66.6959V67.427H164.358V67.944H163.317V71.7684H162.642V67.944H161.879V67.427H162.642V66.5921C162.642 66.3484 162.675 66.1386 162.741 65.9635C162.807 65.7888 162.901 65.6466 163.023 65.5349C163.145 65.4233 163.29 65.3417 163.456 65.288C163.623 65.2352 163.81 65.2092 164.016 65.2092C164.128 65.2092 164.224 65.2171 164.307 65.2324C164.389 65.2481 164.466 65.2778 164.541 65.3204V65.7814C164.541 65.8398 164.514 65.8583 164.461 65.837ZM167.993 70.862C167.773 71.1478 167.451 71.291 167.028 71.291C166.604 71.291 166.282 71.1478 166.063 70.862C165.842 70.5757 165.733 70.149 165.733 69.5819C165.733 68.9991 165.842 68.5668 166.063 68.2861C166.282 68.0049 166.604 67.8645 167.028 67.8645C167.451 67.8645 167.773 68.0049 167.993 68.2861C168.213 68.5668 168.323 68.9991 168.323 69.5819C168.323 70.149 168.213 70.5757 167.993 70.862ZM166.126 71.6607C166.377 71.7802 166.678 71.84 167.028 71.84C167.377 71.84 167.678 71.7802 167.93 71.6607C168.181 71.5416 168.39 71.3781 168.557 71.1719C168.724 70.9653 168.847 70.7253 168.927 70.4515C169.006 70.18 169.046 69.8895 169.046 69.5819C169.046 69.2581 169.003 68.9579 168.919 68.679C168.834 68.4015 168.707 68.1624 168.537 67.9632C168.368 67.7654 168.157 67.6088 167.906 67.4948C167.654 67.3808 167.362 67.3239 167.028 67.3239C166.694 67.3239 166.401 67.3808 166.15 67.4948C165.898 67.6088 165.688 67.7654 165.518 67.9632C165.349 68.1624 165.221 68.4015 165.137 68.679C165.052 68.9579 165.01 69.2581 165.01 69.5819C165.01 69.8895 165.049 70.18 165.129 70.4515C165.208 70.7253 165.332 70.9653 165.498 71.1719C165.665 71.3781 165.874 71.5416 166.126 71.6607ZM172.621 68.0552C172.547 68.0126 172.47 67.9825 172.39 67.9639C172.311 67.9459 172.218 67.9357 172.112 67.9357C171.975 67.9357 171.839 67.9686 171.703 68.0357C171.568 68.102 171.449 68.196 171.346 68.317C171.242 68.4393 171.159 68.5857 171.096 68.7548C171.032 68.9248 171 69.1124 171 69.3195V71.7684H170.317L170.309 67.427H171.008L171.04 68.0552C171.151 67.8222 171.313 67.641 171.525 67.5145C171.736 67.3876 171.956 67.3237 172.184 67.3237C172.295 67.3237 172.392 67.3306 172.474 67.3436C172.556 67.357 172.637 67.3848 172.716 67.427V68.0154C172.716 68.0899 172.684 68.1034 172.621 68.0552ZM176.991 68.3018H176.983C176.893 67.9733 176.752 67.7296 176.562 67.5703C176.371 67.4109 176.093 67.3317 175.728 67.3317C175.6 67.3317 175.475 67.3488 175.35 67.3835C175.225 67.4183 175.108 67.4665 174.996 67.5304C174.885 67.5943 174.783 67.6726 174.691 67.7653C174.598 67.8575 174.52 67.9627 174.456 68.0794H174.449L174.425 67.4262H173.757V71.7676H174.417V69.3748C174.417 69.1579 174.451 68.9578 174.52 68.7748C174.589 68.5918 174.68 68.4329 174.794 68.2976C174.908 68.1623 175.037 68.0567 175.183 67.9798C175.329 67.9029 175.478 67.8644 175.632 67.8644C175.934 67.8644 176.144 67.9733 176.26 68.1906C176.376 68.4079 176.435 68.7382 176.435 69.1834V71.7676H177.094L177.102 69.3748C177.102 69.1579 177.137 68.9578 177.205 68.7748C177.274 68.5918 177.364 68.4329 177.475 68.2976C177.587 68.1623 177.714 68.0567 177.857 67.9798C178 67.9029 178.148 67.8644 178.302 67.8644C178.604 67.8644 178.812 67.9733 178.925 68.1906C179.039 68.4079 179.096 68.7382 179.096 69.1834V71.7676H179.772V69.208C179.772 68.9059 179.749 68.6386 179.704 68.4056C179.659 68.1721 179.582 67.9761 179.474 67.8167C179.365 67.6573 179.223 67.5374 179.049 67.4549C178.874 67.3729 178.656 67.3317 178.397 67.3317C178.111 67.3317 177.846 67.4123 177.603 67.574C177.359 67.7356 177.155 67.9784 176.991 68.3018ZM183.752 70.0033V69.4307L182.6 69.5734C182.303 69.616 182.063 69.7156 181.878 69.8718C181.692 70.0288 181.599 70.2554 181.599 70.5519C181.599 70.7905 181.68 70.973 181.841 71.1004C182.003 71.2278 182.211 71.2908 182.465 71.2908C182.635 71.2908 182.797 71.2542 182.953 71.1801C183.109 71.106 183.247 71.0091 183.367 70.8896C183.486 70.7701 183.58 70.6334 183.648 70.4801C183.718 70.3267 183.752 70.1674 183.752 70.0033ZM181.409 68.3573C181.382 68.3842 181.358 68.3925 181.337 68.3851C181.316 68.3772 181.305 68.3522 181.305 68.3096V67.7295C181.528 67.5808 181.777 67.4645 182.052 67.3798C182.327 67.2945 182.61 67.2524 182.902 67.2524C183.421 67.2524 183.8 67.3714 184.042 67.61C184.283 67.8486 184.403 68.241 184.403 68.7868V71.7685H183.744L183.712 71.1398H183.704C183.635 71.2565 183.55 71.3599 183.447 71.4502C183.343 71.5396 183.229 71.6151 183.105 71.6767C182.98 71.7374 182.851 71.7842 182.715 71.8157C182.58 71.8472 182.447 71.8639 182.314 71.8639C182.103 71.8681 181.908 71.8454 181.73 71.7916C181.553 71.7388 181.4 71.6591 181.273 71.554C181.147 71.4479 181.048 71.3154 180.979 71.156C180.91 70.9971 180.876 70.8141 180.876 70.6075C180.876 70.2049 181.001 69.8695 181.249 69.6017C181.498 69.3339 181.869 69.1634 182.362 69.0884L183.728 68.8901V68.8178C183.728 68.6278 183.709 68.4685 183.673 68.3415C183.635 68.2146 183.58 68.115 183.506 68.0436C183.432 67.9718 183.337 67.9213 183.224 67.8917C183.109 67.8634 182.976 67.8486 182.822 67.8486C182.568 67.8486 182.329 67.8903 182.103 67.976C181.878 68.0608 181.647 68.1877 181.409 68.3573ZM188.002 71.1564C188.002 71.0814 187.973 71.0661 187.915 71.1082C187.809 71.1666 187.693 71.2092 187.565 71.2352C187.439 71.262 187.338 71.275 187.264 71.275C187.142 71.275 187.044 71.2648 186.97 71.2435C186.895 71.2227 186.84 71.1879 186.803 71.1393C186.766 71.0925 186.742 71.029 186.731 70.9493C186.721 70.8696 186.715 70.7714 186.715 70.6547V67.944H187.844V67.427H186.715V66.3535H186.032V67.427H185.277V67.944H186.032V70.7585C186.032 71.1615 186.12 71.446 186.298 71.6137C186.476 71.78 186.768 71.8611 187.176 71.8555C187.32 71.8555 187.466 71.8398 187.617 71.8078C187.769 71.7758 187.896 71.7202 188.002 71.6406V71.1564ZM189.806 71.7677H189.106V67.4262H189.806V71.7677ZM188.963 66.0438C188.963 65.9002 189.01 65.7811 189.102 65.6856C189.195 65.5902 189.313 65.543 189.456 65.543C189.594 65.543 189.71 65.5902 189.806 65.6856C189.901 65.7811 189.949 65.9002 189.949 66.0438C189.949 66.1818 189.901 66.2967 189.806 66.3899C189.71 66.482 189.594 66.5288 189.456 66.5288C189.313 66.5288 189.195 66.482 189.102 66.3899C189.01 66.2967 188.963 66.1818 188.963 66.0438ZM194.077 70.862C193.857 71.1478 193.535 71.291 193.112 71.291C192.687 71.291 192.366 71.1478 192.146 70.862C191.926 70.5757 191.816 70.149 191.816 69.5819C191.816 68.9991 191.926 68.5668 192.146 68.2861C192.366 68.0049 192.687 67.8645 193.112 67.8645C193.535 67.8645 193.857 68.0049 194.077 68.2861C194.297 68.5668 194.406 68.9991 194.406 69.5819C194.406 70.149 194.297 70.5757 194.077 70.862ZM192.21 71.6607C192.462 71.7802 192.762 71.84 193.112 71.84C193.461 71.84 193.761 71.7802 194.013 71.6607C194.265 71.5416 194.474 71.3781 194.641 71.1719C194.808 70.9653 194.931 70.7253 195.01 70.4515C195.089 70.18 195.129 69.8895 195.129 69.5819C195.129 69.2581 195.087 68.9579 195.002 68.679C194.918 68.4015 194.79 68.1624 194.621 67.9632C194.452 67.7654 194.241 67.6088 193.989 67.4948C193.738 67.3808 193.445 67.3239 193.112 67.3239C192.777 67.3239 192.485 67.3808 192.234 67.4948C191.982 67.6088 191.771 67.7654 191.601 67.9632C191.432 68.1624 191.305 68.4015 191.22 68.679C191.136 68.9579 191.093 69.2581 191.093 69.5819C191.093 69.8895 191.134 70.18 191.212 70.4515C191.292 70.7253 191.415 70.9653 191.582 71.1719C191.749 71.3781 191.958 71.5416 192.21 71.6607ZM200 69.1998V71.7683H199.316V69.1841C199.316 68.7389 199.253 68.4081 199.126 68.1903C198.999 67.9735 198.763 67.8642 198.419 67.8642C198.249 67.8642 198.084 67.9026 197.922 67.9795C197.76 68.0564 197.617 68.1625 197.493 68.2978C197.368 68.4331 197.268 68.592 197.191 68.775C197.115 68.958 197.076 69.1577 197.076 69.3754V71.7683H196.401V67.4268H197.084L197.116 68.0546H197.124C197.187 67.9439 197.27 67.8429 197.374 67.753C197.478 67.6631 197.59 67.5867 197.712 67.5227C197.833 67.4588 197.962 67.4097 198.097 67.3754C198.232 67.3407 198.366 67.3235 198.498 67.3235C199.049 67.3235 199.437 67.4843 199.662 67.8049C199.887 68.1255 200 68.5906 200 69.1998ZM0.157258 71.7677H0.856334V65.7496H0.157258V71.7677Z" fill="white"/>
<path fill-rule="evenodd" clip-rule="evenodd" d="M191.398 5.21152H192.24V0.707905H193.905V2.86102e-06H189.741V0.707905H191.398V5.21152ZM197.495 5.21143L198.654 1.48984L198.789 0.93714L198.775 1.48984V5.21143H199.53V0.00037384H198.432L197.205 3.85631L197.091 4.31496L196.983 3.85631L195.757 0.00037384H194.652V5.21143H195.406V1.48984L195.393 0.93714L195.528 1.48984L196.68 5.21143H197.495Z" fill="white"/>
<path d="M7.40005 58.1651H0.882942V17.6965H7.40005V58.1651Z" fill="white"/>
<path d="M8.28284 8.28857H0V0.000378814H8.28284V8.28857Z" fill="#33C2EE"/>
</svg>
