<svg xmlns="http://www.w3.org/2000/svg" width="159" height="20" viewBox="0 0 159 20" fill="none" style="cursor:pointer"><g clip-path="url(#clip0_35262_10674)"><path d="M158.116 1.55232C158.012 1.35163 157.805 1.22466 157.577 1.22466H156.951L157.154 0.950235C157.291 0.765923 157.307 0.528364 157.204 0.327667C157.1 0.126971 156.893 0 156.665 0H149.478C149.284 0 149.101 0.0942044 148.989 0.245751L148.053 1.52365C148.053 1.52365 148.036 1.48679 148.024 1.47041C147.912 1.31477 147.725 1.22466 147.535 1.22466H147.05L147.195 0.782306C147.253 0.602089 147.224 0.401393 147.108 0.245751C146.996 0.0901086 146.809 0 146.619 0H138.898C138.632 0 138.404 0.16793 138.322 0.41368L134.604 11.7182H129.904L133.095 2.01106C133.153 1.83084 133.124 1.63015 133.008 1.4745C132.896 1.31886 132.71 1.22875 132.519 1.22875H132.034L132.179 0.786402C132.237 0.606185 132.208 0.405488 132.092 0.249846C131.981 0.0942044 131.794 0.00409584 131.603 0.00409584H11.016C10.9165 0.00409584 10.8171 0.0286709 10.73 0.0737252L5.11842 3.04731C4.98165 3.12103 4.87804 3.24391 4.8283 3.39136L2.92599 9.17878C2.84725 9.41225 2.92599 9.66619 3.11664 9.82593L6.0302 12.2138L1.28064 14.7327C1.14387 14.8065 1.04026 14.9293 0.990527 15.0768L0.0290113 17.9889C-0.0290113 18.1692 0 18.3699 0.116045 18.5255C0.227946 18.6811 0.414447 18.7712 0.605092 18.7712H1.08999L0.944938 19.2136C0.886916 19.3938 0.915927 19.5945 1.03197 19.7502C1.14387 19.9058 1.33037 19.9959 1.52102 19.9959H15.463C15.5625 19.9959 15.6619 19.9713 15.749 19.9263L18.7164 18.3535C18.7371 18.4149 18.762 18.4723 18.7993 18.5255C18.9112 18.6811 19.0977 18.7712 19.2883 18.7712H19.7732L19.6282 19.2136C19.5702 19.3938 19.5992 19.5945 19.7152 19.7502C19.8271 19.9058 20.0136 19.9959 20.2043 19.9959H43.4796C43.7448 19.9959 43.9728 19.828 44.0557 19.5822L45.8461 14.1388H51.0847L49.8206 17.9889C49.7626 18.1692 49.7916 18.3699 49.9077 18.5255C50.0196 18.6811 50.2061 18.7712 50.3967 18.7712H50.8816L50.7365 19.2136C50.6785 19.3938 50.7075 19.5945 50.8236 19.7502C50.9355 19.9058 51.122 19.9959 51.3126 19.9959H65.6815C65.6815 19.9959 65.7105 19.9918 65.7271 19.9877C65.7478 19.9877 65.7685 19.9959 65.7893 19.9959H73.5104C73.7756 19.9959 74.0036 19.828 74.0865 19.5822L75.1682 16.2892L75.508 18.2757C75.5578 18.5665 75.8064 18.7753 76.1048 18.7753H76.2996L76.4239 19.5003C76.4737 19.7911 76.7223 20 77.0207 20H141.745C142.01 20 142.238 19.8321 142.321 19.5863L143.403 16.2933L143.742 18.2797C143.792 18.5706 144.041 18.7794 144.339 18.7794H144.534L144.658 19.5044C144.708 19.7952 144.957 20.0041 145.255 20.0041H152.442C152.62 20.0041 152.786 19.9263 152.902 19.7952C153.018 19.6641 153.068 19.488 153.043 19.316L151.725 10.7721L158.066 2.18308C158.203 1.99877 158.219 1.76121 158.116 1.56052V1.55232ZM83.9503 13.7661L83.4861 10.7639L86.1013 7.22097L83.9503 13.7661Z" fill="black"></path><path d="M18.2387 7.05774H12.3535L12.7556 5.85766H18.305L23.5022 3.10525L24.128 1.20068H11.1724L5.91305 3.98586L4.20967 9.15891L7.33045 11.7188H13.2197L12.8136 12.9148H7.26414L2.07113 15.6713L1.44531 17.5759H14.3968L19.6602 14.7866L21.3595 9.61764L18.2387 7.05774Z" fill="white"></path><path d="M81.4475 9.03554L87.2331 1.2002H71.0946L65.7109 17.5795H72.1597L74.4516 10.6042H75.4297V10.637L76.6233 17.5795H82.5913L81.3439 9.48199C81.319 9.32635 81.3604 9.16661 81.4516 9.03964L81.4475 9.03554ZM77.7838 4.32942L76.6689 7.72078H75.3924L75.409 7.66753L76.5238 4.27617H77.8003L77.7838 4.32942Z" fill="white"></path><path d="M102.544 1.2002L99.0583 11.8043H97.7859L97.8025 11.7511L101.271 1.2002H95.8463L92.3608 11.8043H91.0843L91.105 11.7511L94.574 1.2002H89.3644L83.9766 17.5754H102.531L107.915 1.2002H102.544Z" fill="white"></path><path d="M109.298 1.2002L103.914 17.5795H110.359L112.282 11.7265H113.554L113.538 11.7798L111.631 17.5795H118.084L123.468 1.2002H109.298ZM115.535 5.72201L114.42 9.11336H113.144L113.16 9.06012L114.275 5.66876H115.552L115.535 5.72201Z" fill="white"></path><path d="M33.2339 1.2002L29.7484 11.7961H28.4761L28.4927 11.747L31.9574 1.2002H25.5128L20.125 17.5754H34.2991L39.6827 1.2002H33.2339Z" fill="white"></path><path d="M126.896 12.9225L126.912 12.8693L130.762 1.2002H124.852L119.469 17.5754H132.561L134.09 12.9225H126.896Z" fill="white"></path><path d="M145.007 7.71253H143.635L143.652 7.65928L145.778 1.19604H139.329L133.945 17.5753H140.394L142.686 10.6001H143.664V10.6329L144.858 17.5753H150.826L149.578 9.47784C149.553 9.3222 149.595 9.16246 149.686 9.03549L155.472 1.20014H149.79L145.011 7.71663L145.007 7.71253Z" fill="white"></path><path d="M59.0757 12.9143L59.4819 11.7183H66.2539L67.7874 7.05725H61.0029L61.409 5.85717H68.1811L69.7145 1.2002H56.618L51.2344 17.5754H64.3267L65.8602 12.9143H59.0757Z" fill="white"></path><path d="M55.2333 1.2002H41.0634L35.6797 17.5795H42.1285L44.0557 11.7224H51.7768L55.2333 1.20429V1.2002ZM47.7567 4.32942L46.6418 7.72078H45.3653L45.3819 7.66753L46.4967 4.27617H47.7732L47.7567 4.32942Z" fill="white"></path></g><defs><clipPath id="clip0_35262_10674"><rect width="158.182" height="20" fill="white"></rect></clipPath></defs></svg>