<svg viewBox="0 0 156 20" fill="black" xmlns="http://www.w3.org/2000/svg" height="20"><path d="m16.253 5.431 2.661 4.57-.843 1.58c-.678 1.273-2.15 1.672-3.27-.582L8.758 0H0l9.582 17.381a4.961 4.961 0 0 0 8.746 0C20.622 13.22 22.706 9.563 25 5.401L21.922 0h-8.599l2.93 5.431ZM51.773 0l-5.162 15.104L41.445 0H37l6.84 20h5.538l6.84-20h-4.445ZM72.402 3.87V0H57.735V20h14.667v-3.87H62.214v-4.396h9.268V7.86h-9.268V3.87h10.188Z"></path><g clip-path="url(#vessl_logo_svg__a)"><path d="M85.96 6.198c-.269-1.995-2.284-2.446-3.948-2.446-1.02 0-3.627.16-3.627 2.02 0 1.357 1.694 1.755 2.821 1.942l4.056.691c3.44.638 5.347 2.18 5.347 5.294 0 4.763-3.894 6.304-8.193 6.304-3.87 0-8.383-1.782-8.999-6.73h4.192c.565 2.368 3.035 2.953 5.157 2.953.806 0 3.816-.135 3.816-2.048 0-1.198-.78-1.542-1.747-1.783-3.976-.957-10.477-.744-10.477-6.382C74.355 1.542 78.275 0 82.173 0c3.897 0 7.738 1.914 7.953 6.198H85.96Z"></path></g><g clip-path="url(#vessl_logo_svg__b)"><path d="M104.168 6.198c-.269-1.995-2.284-2.446-3.948-2.446-1.02 0-3.626.16-3.626 2.02 0 1.357 1.693 1.755 2.82 1.942l4.056.691c3.439.638 5.347 2.18 5.347 5.294 0 4.763-3.894 6.304-8.193 6.304-3.87 0-8.383-1.782-8.999-6.73h4.192c.565 2.368 3.035 2.953 5.157 2.953.806 0 3.816-.135 3.816-2.048 0-1.198-.78-1.542-1.747-1.783-3.976-.957-10.477-.744-10.477-6.382C92.563 1.542 96.483 0 100.381 0c3.897 0 7.738 1.914 7.953 6.198h-4.166Z"></path></g><path d="M114.856 16.13V0h-4.017V20H125v-3.87h-10.144ZM146.329 14.158h-8.499L135.659 20H133l7.611-20h2.995l7.794 20h-2.873l-2.201-5.842h.003Zm-7.703-2.222h6.846l-3.394-8.982h-.122l-3.333 8.982h.003ZM156 0v20h-2.875V0H156Z"></path><defs><clipPath id="vessl_logo_svg__a"><path fill="#fff" transform="translate(73.413)" d="M0 0h17.195v20H0z"></path></clipPath><clipPath id="vessl_logo_svg__b"><path fill="#fff" transform="translate(91.621)" d="M0 0h17.195v20H0z"></path></clipPath></defs></svg>